<?xml version="1.0" encoding="iso-8859-1"?>
<!-- Generator: Adobe Illustrator 19.0.0, SVG Export Plug-In . SVG Version: 6.00 Build 0)  -->
<!-- License: CC0. Made by SVG Repo: https://www.svgrepo.com/svg/75923/color -->
<svg version="1.1" id="Layer_1" xmlns="http://www.w3.org/2000/svg" xmlns:xlink="http://www.w3.org/1999/xlink" x="0px" y="0px"
	 viewBox="0 0 434.071 434.071" style="enable-background:new 0 0 434.071 434.071;" xml:space="preserve">
<g>
	<path d="M210.928,190.674c-10.115,5.4-21.652,8.473-33.896,8.473c-8.073,0-15.831-1.351-23.085-3.806
		c-0.417,2.756-0.636,5.576-0.636,8.446c0,31.001,25.222,56.223,56.223,56.223c28.766,0,52.541-21.72,55.823-49.618
		c-1.566,0.102-3.141,0.172-4.733,0.172C241.381,210.565,223.886,202.985,210.928,190.674z"/>
	<path d="M158.596,180.027c5.78,2.012,11.979,3.12,18.436,3.12c8.315,0,16.207-1.829,23.315-5.083
		c-5.277-7.981-9.003-17.065-10.771-26.827C175.898,156.45,164.767,166.85,158.596,180.027z"/>
	<path d="M209.534,147.565c-1.459,0-2.9,0.074-4.332,0.183c1.337,7.898,4.319,15.241,8.591,21.661
		c5.945-5.151,10.803-11.52,14.176-18.724C222.19,148.673,215.991,147.565,209.534,147.565z"/>
	<path d="M264.955,194.381c-2.524-14.918-10.94-27.848-22.768-36.319c-4.283,8.926-10.358,16.829-17.741,23.271
		c9.786,8.247,22.408,13.231,36.177,13.231C262.083,194.565,263.524,194.491,264.955,194.381z"/>
	<path d="M316.846,138.341c0-31.001-25.222-56.223-56.223-56.223c-8.316,0-16.208,1.829-23.316,5.083
		c7.541,11.405,11.947,25.056,11.947,39.723c0,5.321-0.595,10.504-1.693,15.5c17.019,10.585,29.321,28.043,33.02,48.468
		C301.757,182.822,316.846,162.316,316.846,138.341z"/>
	<path d="M188.492,134.7c1.009-20.221,10.386-38.264,24.716-50.769c-9.785-8.247-22.407-13.231-36.176-13.231
		c-31.002,0-56.224,25.222-56.224,56.223c0,18.831,9.315,35.517,23.57,45.725C153.056,154.565,169.046,140.635,188.492,134.7z"/>
	<path d="M62.536,0v434.071h309V0H62.536z M148.644,364.868c4.418,0,8,3.582,8,8s-3.582,8-8,8h-4.336v3.667c0,4.418-3.582,8-8,8
		s-8-3.582-8-8v-3.667h-16v3.667c0,4.418-3.582,8-8,8s-8-3.582-8-8v-3.667h-3.664c-4.418,0-8-3.582-8-8s3.582-8,8-8h3.664v-16
		h-3.664c-4.418,0-8-3.582-8-8s3.582-8,8-8h3.664v-4.333c0-4.418,3.582-8,8-8s8,3.582,8,8v4.333h16v-4.333c0-4.418,3.582-8,8-8
		s8,3.582,8,8v4.333h4.336c4.418,0,8,3.582,8,8s-3.582,8-8,8h-4.336v16H148.644z M187.308,384.534c0,4.418-3.582,8-8,8s-8-3.582-8-8
		v-56c0-4.418,3.582-8,8-8s8,3.582,8,8V384.534z M219.308,384.534c0,4.418-3.582,8-8,8s-8-3.582-8-8v-56c0-4.418,3.582-8,8-8
		s8,3.582,8,8V384.534z M251.308,384.534c0,4.418-3.582,8-8,8s-8-3.582-8-8v-56c0-4.418,3.582-8,8-8s8,3.582,8,8V384.534z
		 M209.534,276.011c-39.823,0-72.223-32.399-72.223-72.223c0-5.321,0.595-10.504,1.693-15.5
		c-20.508-12.755-34.196-35.486-34.196-61.364c0-39.824,32.399-72.223,72.224-72.223c19.242,0,36.737,7.579,49.695,19.89
		c10.115-5.4,21.652-8.473,33.897-8.473c39.823,0,72.223,32.399,72.223,72.223c0,32.506-21.591,60.057-51.181,69.088
		C279.762,245.568,248.137,276.011,209.534,276.011z M283.308,384.534c0,4.418-3.582,8-8,8s-8-3.582-8-8v-56c0-4.418,3.582-8,8-8
		s8,3.582,8,8V384.534z M315.308,384.534c0,4.418-3.582,8-8,8s-8-3.582-8-8v-56c0-4.418,3.582-8,8-8s8,3.582,8,8V384.534z
		 M347.308,384.534c0,4.418-3.582,8-8,8s-8-3.582-8-8v-56c0-4.418,3.582-8,8-8s8,3.582,8,8V384.534z"/>
	<rect x="112.308" y="348.868" width="16" height="16"/>
	<path d="M209.534,131.565c8.073,0,15.831,1.351,23.085,3.806c0.417-2.756,0.636-5.576,0.636-8.447
		c0-11.479-3.465-22.16-9.393-31.068c-10.337,8.957-17.381,21.606-19.06,35.881C206.367,131.635,207.942,131.565,209.534,131.565z"
		/>
</g>
</svg>
